<svg width="32" height="22" viewBox="0 0 32 22" fill="none" xmlns="http://www.w3.org/2000/svg">
<path d="M31.0597 4.4125C32.3097 3.63125 32.3097 2.3625 31.0597 1.58125C29.8097 0.800003 27.7797 0.800003 26.5297 1.58125L15.9997 8.16875L5.45969 1.5875C4.20969 0.806253 2.17969 0.806253 0.929688 1.5875C-0.320312 2.36875 -0.320312 3.6375 0.929688 4.41875L11.4697 11L0.939687 17.5875C-0.310313 18.3688 -0.310313 19.6375 0.939687 20.4188C2.18969 21.2 4.21969 21.2 5.46969 20.4188L15.9997 13.8313L26.5397 20.4125C27.7897 21.1938 29.8197 21.1938 31.0697 20.4125C32.3197 19.6313 32.3197 18.3625 31.0697 17.5813L20.5297 11L31.0597 4.4125Z" fill="white"/>
</svg>
