<svg width="32" height="32" viewBox="0 0 32 32" fill="none" xmlns="http://www.w3.org/2000/svg">
<g clip-path="url(#clip0_37_93)">
<path d="M31.0597 9.4125C32.3097 8.63125 32.3097 7.3625 31.0597 6.58125C29.8097 5.8 27.7797 5.8 26.5297 6.58125L15.9997 13.1688L5.45969 6.5875C4.20969 5.80625 2.17969 5.80625 0.929688 6.5875C-0.320312 7.36875 -0.320312 8.6375 0.929688 9.41875L11.4697 16L0.939687 22.5875C-0.310313 23.3688 -0.310313 24.6375 0.939687 25.4188C2.18969 26.2 4.21969 26.2 5.46969 25.4188L15.9997 18.8313L26.5397 25.4125C27.7897 26.1938 29.8197 26.1938 31.0697 25.4125C32.3197 24.6313 32.3197 23.3625 31.0697 22.5813L20.5297 16L31.0597 9.4125Z" fill="white"/>
</g>
<defs>
<clipPath id="clip0_37_93">
<rect width="32" height="32" fill="white"/>
</clipPath>
</defs>
</svg>
